# xmcd
#
# Track frame offsets:
#	150
#	27265
#	52860
#	65467
#	83965
#	99485
#	113035
#	134952
#	153157
#
# Disc length: 2632 seconds
#
# Revision: 1
# Processed by: cddbd v1.5.1PL0 Copyright (c) Steve Scherf et al.
# Submitted via: CDex 1.50Beta5
#
DISCID=710a4609
DTITLE=PORTFOLIO - PORTFOLIO
DYEAR=1900
DGENRE=Jazz
TTITLE0=PORTFOLIO/特中
TTITLE1=SNAKE CHARMER
TTITLE2=FREE
TTITLE3=UNFAITHFUL MADAM
TTITLE4=WHERE THE HELL IS THIS?
TTITLE5=クルシー
TTITLE6=THE BLAME
TTITLE7=TAXI QUEEN
TTITLE8=DARK MATTER
EXTD=
EXTT0=
EXTT1=
EXTT2=
EXTT3=
EXTT4=
EXTT5=
EXTT6=
EXTT7=
EXTT8=
PLAYORDER=
